<?xml version="1.0" encoding="UTF-8" standalone="no"?>
<svg width="826px" height="222px" viewBox="0 0 826 222" version="1.1" xmlns="http://www.w3.org/2000/svg" xmlns:xlink="http://www.w3.org/1999/xlink">
    <!-- Generator: Sketch 39.1 (31720) - http://www.bohemiancoding.com/sketch -->
    <title>conveyor_belt</title>
    <desc>Created with Sketch.</desc>
    <defs>
        <rect id="path-1" x="0" y="0" width="826" height="36" rx="18"></rect>
        <mask id="mask-2" maskContentUnits="userSpaceOnUse" maskUnits="objectBoundingBox" x="0" y="0" width="826" height="36" fill="white">
            <use xlink:href="#path-1"></use>
        </mask>
    </defs>
    <g id="speaker_visuals" stroke="none" stroke-width="1" fill="none" fill-rule="evenodd">
        <g id="conveyor_belt">
            <g id="tech_repo_illu" transform="translate(0.000000, -87.000000)">
                <g id="bandl" transform="translate(0.000000, 222.000000)">
                    <use id="Rectangle" stroke="#42314A" mask="url(#mask-2)" stroke-width="14" fill="#657388" xlink:href="#path-1"></use>
                    <rect id="Rectangle-2" fill="#657388" x="60" y="36" width="10" height="36"></rect>
                    <rect id="Rectangle-2" fill="#657388" x="763" y="35" width="10" height="36"></rect>
                    <circle id="Oval" fill-opacity="0.600000024" fill="#42314A" cx="301" cy="18" r="8"></circle>
                    <circle id="Oval" fill-opacity="0.600000024" fill="#42314A" cx="807" cy="18" r="8"></circle>
                    <circle id="Oval" fill-opacity="0.600000024" fill="#42314A" cx="713" cy="18" r="8"></circle>
                    <circle id="Oval" fill-opacity="0.600000024" fill="#42314A" cx="619" cy="18" r="8"></circle>
                    <circle id="Oval" fill-opacity="0.600000024" fill="#42314A" cx="525" cy="18" r="8"></circle>
                    <circle id="Oval" fill-opacity="0.600000024" fill="#42314A" cx="19" cy="18" r="8"></circle>
                    <circle id="Oval" fill-opacity="0.600000024" fill="#42314A" cx="113" cy="18" r="8"></circle>
                    <circle id="Oval" fill-opacity="0.600000024" fill="#42314A" cx="207" cy="18" r="8"></circle>
                </g>
                <g id="en" transform="translate(72.000000, 157.000000)">
                    <g id="Group-3" fill="#FFB095">
                        <rect id="Rectangle-2" x="0" y="0" width="65" height="65"></rect>
                    </g>
                    <text id="EN" font-family="LucidaGrande-Bold, Lucida Grande" font-size="20" font-weight="bold" fill="#FFFFFF">
                        <tspan x="19" y="43">EN</tspan>
                    </text>
                </g>
                <g id="de" transform="translate(185.000000, 157.000000)">
                    <g id="Group-3" fill="#FFB095">
                        <rect id="Rectangle-2" x="0" y="0" width="65" height="65"></rect>
                    </g>
                    <text id="DE" font-family="LucidaGrande-Bold, Lucida Grande" font-size="20" font-weight="bold" fill="#FFFFFF">
                        <tspan x="18" y="43">DE</tspan>
                    </text>
                </g>
                <g id="maschin" transform="translate(302.000000, 87.000000)">
                    <rect id="Rectangle-2" fill="#5192C3" x="0.5" y="20.9333333" width="205" height="180.133333"></rect>
                    <rect id="Rectangle-2" fill="#9AD7E7" x="8.95918367" y="0" width="187.346939" height="222"></rect>
                    <ellipse id="Oval" fill="#5192C3" cx="182" cy="20" rx="7" ry="7"></ellipse>
                    <ellipse id="Oval" fill="#5192C3" cx="161" cy="20" rx="7" ry="7"></ellipse>
                    <rect id="Rectangle-3" fill="#5192C3" x="25" y="207" width="157" height="6" rx="3"></rect>
                    <g id="Group-4" transform="translate(25.000000, 135.000000)" fill="#5192C3">
                        <g id="Icons_file_001_Services-(1)">
                            <g id="Layer_1">
                                <path d="M35.8477,21.0313 C35.927,20.3648 35.9731,19.6883 35.9731,19 C35.9731,18.0236 35.8856,17.0681 35.7275,16.1366 L37.813,14.479 C37.2593,12.1655 36.2944,10.0169 34.9927,8.1084 L32.3231,8.4917 C31.3159,7.217 30.1306,6.09 28.8036,5.1493 L29.1079,2.4989 C27.1581,1.3021 24.9806,0.4453 22.6553,0 L21.0322,2.1523 C20.3656,2.0726 19.688,2.027 19,2.027 C18.0232,2.027 17.0681,2.1138 16.1366,2.2722 L14.4801,0.1856 C12.1838,0.7359 10.0463,1.6918 8.1485,2.9785 L8.5233,5.6518 C7.2349,6.6649 6.0971,7.859 5.1486,9.1976 L2.4983,8.8941 C1.3025,10.8423 0.4438,13.019 0,15.3451 L2.1523,16.9697 C2.0729,17.6354 2.0269,18.3124 2.0269,19 C2.0269,19.9611 2.1107,20.9026 2.2644,21.8195 L0.1744,23.469 C0.7222,25.7846 1.681,27.9404 2.9776,29.8518 L5.6517,29.4774 C6.664,30.7651 7.8575,31.9021 9.1956,32.851 L8.8921,35.5014 C10.841,36.6982 13.0187,37.5546 15.3446,37.9999 L16.9692,35.8479 C17.6357,35.9273 18.3118,35.9733 18.9999,35.9733 C19.9759,35.9733 20.9317,35.8861 21.8632,35.7277 L23.5191,37.8143 C25.8155,37.264 27.9537,36.3087 29.85,35.0222 L29.476,32.3485 C30.7637,31.3369 31.9007,30.143 32.8492,28.8056 L35.5002,29.1095 C36.6975,27.1575 37.5547,24.9808 38,22.6551 L35.8477,21.0313 L35.8477,21.0313 Z M25.5186,22.9938 L24.467,22.8735 C24.0929,23.4002 23.6453,23.8703 23.1377,24.2692 L23.2861,25.3298 C22.5373,25.8382 21.6918,26.2155 20.7849,26.433 L20.1265,25.6036 C19.7599,25.6656 19.3844,25.7057 18.9999,25.7057 C18.7282,25.7057 18.4626,25.6845 18.1999,25.6534 L17.5556,26.5065 C16.6368,26.3306 15.7765,25.9922 15.0062,25.5191 L15.1265,24.4681 C14.5995,24.0941 14.1297,23.6461 13.7304,23.1388 L12.6699,23.2872 C12.1578,22.5317 11.7793,21.6808 11.5625,20.7653 L12.3937,20.1095 C12.3335,19.7477 12.2943,19.3788 12.2943,18.9999 C12.2943,18.729 12.315,18.4629 12.3463,18.2002 L11.4936,17.556 C11.6695,16.6375 12.0086,15.777 12.4807,15.0078 L13.5315,15.128 C13.9057,14.6003 14.354,14.1301 14.8616,13.7304 L14.7132,12.6705 C15.4628,12.1625 16.3074,11.7848 17.2144,11.5673 L17.8728,12.3963 C18.2402,12.3343 18.615,12.2946 19.0001,12.2946 C19.271,12.2946 19.5382,12.3146 19.8009,12.3466 L20.4437,11.4938 C21.3632,11.6701 22.2227,12.0085 22.9931,12.4813 L22.8729,13.5323 C23.3953,13.9034 23.8623,14.3465 24.2593,14.8493 L25.3183,14.6972 C25.832,15.4509 26.2142,16.3003 26.4324,17.214 L25.6033,17.873 C25.6658,18.2408 25.7051,18.6152 25.7051,19.0001 C25.7051,19.2718 25.6844,19.5378 25.6531,19.8002 L26.5059,20.4444 C26.3299,21.3628 25.9914,22.2233 25.5186,22.9938 L25.5186,22.9938 Z" id="Shape"></path>
                            </g>
                        </g>
                        <g id="Icons_file_001_Services-(1)" transform="translate(46.614993, 41.665884) rotate(8.000000) translate(-46.614993, -41.665884) translate(29.614993, 24.665884)">
                            <g id="Layer_1" transform="translate(-0.000000, -0.000000)">
                                <path d="M31.7292983,18.6150964 C31.7994878,18.025168 31.8402916,17.4263884 31.8402916,16.8171645 C31.8402916,15.9529392 31.7628441,15.1072129 31.6229076,14.2827293 L33.4688127,12.8155644 C32.9787251,10.7678534 32.1246787,8.86609762 30.9725259,7.17685771 L28.6096257,7.51612187 C27.718139,6.38786716 26.6690135,5.39034377 25.4944673,4.55771711 L25.7638075,2.21181117 C24.0380123,1.15250684 22.1106768,0.394141229 20.0525214,-9.9475983e-14 L18.615893,1.90503069 C18.025876,1.83448711 17.4261229,1.79412592 16.8171645,1.79412592 C15.9525852,1.79412592 15.1072129,1.8709538 14.2827293,2.01115585 L12.8165381,0.164277144 C10.784051,0.651355334 8.89211997,1.49743573 7.21235078,2.63631181 L7.54409147,5.00248685 C6.4037107,5.89919576 5.39662808,6.9561103 4.55709753,8.14092379 L2.21128011,7.87229172 C1.15286088,9.59667065 0.392813558,11.5232981 -1.20792265e-13,13.5821616 L1.90503069,15.0201177 C1.83475264,15.609338 1.7940374,16.2085601 1.7940374,16.8171645 C1.7940374,17.6678475 1.86820995,18.5011822 2.00425196,19.3127432 L0.154363868,20.7727386 C0.639229273,22.8223084 1.4878765,24.730437 2.63551521,26.4222437 L5.00239834,26.0908571 C5.89839916,27.2306183 6.95478263,28.2369928 8.13915356,29.0768774 L7.87052149,31.4227833 C9.59552001,32.4820877 11.5230326,33.2400992 13.5817191,33.6342404 L15.0196751,31.7294753 C15.6096036,31.7997533 16.2080291,31.8404686 16.817076,31.8404686 C17.6809472,31.8404686 18.526939,31.7632866 19.3514227,31.6230846 L20.8170828,33.4699633 C22.8496584,32.9828851 24.742209,32.1373358 26.4206505,30.9986367 L26.0896179,28.6321076 C27.2293791,27.7367264 28.2357536,26.6799889 29.0752842,25.4962375 L31.4217212,25.7652237 C32.4814681,24.0374813 33.2401877,22.1108538 33.634329,20.0523444 L31.7292983,18.6150964 L31.7292983,18.6150964 Z M22.5868681,20.3521325 L21.6560823,20.2456532 C21.3249612,20.7118427 20.9287842,21.1279348 20.4795003,21.4810067 L20.6108513,22.4197586 C19.9480779,22.8697505 19.1997141,23.203704 18.3970043,23.3962162 L17.8142453,22.6621028 C17.4897625,22.7169798 17.1574023,22.7524729 16.817076,22.7524729 C16.5765905,22.7524729 16.3415043,22.7337085 16.1089848,22.7061814 L15.5387059,23.4612721 C14.7254633,23.3055806 13.9639998,23.006058 13.2821965,22.5873106 L13.3886757,21.6570559 C12.9222207,21.3260233 12.5063942,20.9294923 12.1529682,20.480474 L11.2143049,20.6118249 C10.761038,19.9431213 10.4260224,19.1899779 10.2341297,18.3796561 L10.9698364,17.7991984 C10.9165525,17.4789642 10.8818561,17.1524456 10.8818561,16.817076 C10.8818561,16.5772986 10.9001779,16.3417698 10.927882,16.1092504 L10.1731453,15.53906 C10.3288369,14.7260828 10.628979,13.9644423 11.0468413,13.2836127 L11.976919,13.3900034 C12.3081286,12.9229288 12.7049252,12.5067482 13.154209,12.1529682 L13.0228581,11.2148359 C13.6863395,10.7651981 14.4339067,10.4308905 15.2367051,10.2383782 L15.8194641,10.9721377 C16.1446549,10.9172606 16.4763956,10.8821216 16.817253,10.8821216 C17.0570304,10.8821216 17.2935328,10.8998239 17.5260522,10.9281475 L18.0950034,10.1733224 C18.9088657,10.329368 19.6696211,10.6288905 20.3515129,11.0473724 L20.2451222,11.9776271 C20.7075057,12.3060929 21.1208539,12.6982869 21.4722441,13.1433221 L22.4095798,13.0086963 C22.8642628,13.6758067 23.2025533,14.4276224 23.3956852,15.236351 L22.6618372,15.8196411 C22.7171568,16.145186 22.7519418,16.4765726 22.7519418,16.817253 C22.7519418,17.0577384 22.73362,17.2931787 22.7059159,17.5254326 L23.460741,18.095623 C23.304961,18.9085116 23.0053499,19.6701522 22.5868681,20.3521325 L22.5868681,20.3521325 Z" id="Shape"></path>
                            </g>
                        </g>
                        <g id="Icons_file_001_Services-(1)" transform="translate(19.000000, 50.000000) rotate(-19.000000) translate(-19.000000, -50.000000) translate(8.000000, 39.000000)">
                            <g id="Layer_1" transform="translate(0.000000, 0.000000)">
                                <path d="M20.7539316,12.1760158 C20.7998421,11.7901474 20.8265316,11.3984895 20.8265316,11 C20.8265316,10.4347158 20.7758737,9.88153158 20.6843421,9.34224211 L21.8917368,8.38257895 C21.5711737,7.04318421 21.0125474,5.79925789 20.2589316,4.69433684 L18.7133737,4.91624737 C18.1302579,4.17826316 17.4440316,3.52578947 16.6757684,2.98117368 L16.8519421,1.44673158 C15.7231105,0.753847368 14.4624526,0.257805263 13.1162263,2.13162821e-14 L12.1765368,1.24606842 C11.7906105,1.19992632 11.3983158,1.17352632 11,1.17352632 C10.4344842,1.17352632 9.88153158,1.22377895 9.34224211,1.31548421 L8.38321579,0.107452632 C7.05377895,0.426047368 5.81627895,0.979463158 4.71755263,1.72439474 L4.93454211,3.27209474 C4.18862632,3.85862632 3.5299,4.54994737 2.98076842,5.32492632 L1.44638421,5.14921579 C0.754078947,6.27712105 0.256936842,7.53731579 2.13162821e-14,8.88400526 L1.24606842,9.82456316 C1.2001,10.2099684 1.17346842,10.6019158 1.17346842,11 C1.17346842,11.5564263 1.22198421,12.1015053 1.31096842,12.6323421 L0.100968421,13.5873158 C0.418115789,14.9279263 0.973210526,16.1760211 1.72387368,17.2826211 L3.27203684,17.0658632 C3.85810526,17.8113737 4.54907895,18.4696368 5.32376842,19.019 L5.14805789,20.5534421 C6.27636842,21.2463263 7.53714211,21.7421368 8.88371579,21.9999421 L9.82427368,20.7540474 C10.2101421,20.8000158 10.6015684,20.8266474 10.9999421,20.8266474 C11.5649947,20.8266474 12.1183526,20.7761632 12.6576421,20.6844579 L13.6163211,21.8924895 C14.9458158,21.5738947 16.1837211,21.0208263 17.2815789,20.2760105 L17.0650526,18.7280789 C17.8105632,18.1424158 18.4688263,17.4512105 19.0179579,16.6769263 L20.5527474,16.8528684 C21.2459211,15.7227632 21.7421947,14.4625684 22,13.1161105 L20.7539316,12.1760158 L20.7539316,12.1760158 Z M14.7739263,13.3122 L14.1651053,13.2425526 C13.9485211,13.5474842 13.6893842,13.8196474 13.3955105,14.0505895 L13.4814263,14.6646211 C13.0479105,14.9589579 12.5584105,15.1773947 12.0333632,15.3033158 L11.6521842,14.8231368 C11.4399421,14.8590316 11.2225474,14.8822474 10.9999421,14.8822474 C10.8426421,14.8822474 10.6888737,14.8699737 10.5367842,14.8519684 L10.1637684,15.3458684 C9.63183158,15.2440316 9.13376316,15.0481158 8.6878,14.7742158 L8.75744737,14.1657421 C8.45234211,13.9492158 8.18035263,13.6898474 7.94917895,13.3961474 L7.33520526,13.4820632 C7.03872632,13.0446684 6.81959474,12.5520421 6.69407895,12.0220158 L7.1753,11.6423421 C7.14044737,11.4328789 7.11775263,11.2193053 7.11775263,10.9999421 C7.11775263,10.8431053 7.12973684,10.6890474 7.14785789,10.5369579 L6.65418947,10.164 C6.75602632,9.63223684 6.95234737,9.13405263 7.22566842,8.68872632 L7.83402632,8.75831579 C8.05066842,8.45280526 8.31021053,8.18058421 8.60408421,7.94917895 L8.51816842,7.33555263 C8.95214737,7.04144737 9.44112632,6.82277895 9.96623158,6.69685789 L10.3474105,7.17680526 C10.5601158,7.14091053 10.7771053,7.11792632 11.0000579,7.11792632 C11.1568947,7.11792632 11.3115895,7.12950526 11.4636789,7.14803158 L11.8358263,6.65430526 C12.3681684,6.75637368 12.8657737,6.95228947 13.3117947,7.22601579 L13.2422053,7.83448947 C13.5446474,8.04933684 13.8150158,8.30586842 14.0448579,8.59696316 L14.6579632,8.50890526 C14.9553684,8.94525789 15.1766421,9.43701579 15.3029684,9.966 L14.8229632,10.3475263 C14.8591474,10.5604632 14.8819,10.7772211 14.8819,11.0000579 C14.8819,11.1573579 14.8699158,11.3113579 14.8517947,11.4632737 L15.3455211,11.8362316 C15.2436263,12.3679368 15.0476526,12.8661211 14.7739263,13.3122 L14.7739263,13.3122 Z" id="Shape"></path>
                            </g>
                        </g>
                    </g>
                    <text id="TECH" font-family="LucidaGrande-Bold, Lucida Grande" font-size="30" font-weight="bold" fill="#FFFFFF">
                        <tspan x="62" y="78">TECH</tspan>
                    </text>
                    <text id="REPO" font-family="LucidaGrande-Bold, Lucida Grande" font-size="30" font-weight="bold" fill="#FFFFFF">
                        <tspan x="64" y="114">REPO</tspan>
                    </text>
                </g>
                <g id="Icons_file_003_Checkmark" transform="translate(650.000000, 118.000000)" fill="#7BDAC9">
                    <g id="Layer_1">
                        <polygon id="Shape" points="20.9414545 2.11928182 18.3415909 0 7.70636364 12.3124303 2.18156061 7.80902727 -1.77635684e-15 10.3346606 8.12466667 16.9573455"></polygon>
                    </g>
                </g>
            </g>
            <g id="Group-10" transform="translate(632.000000, 55.000000)">
                <path d="M21.1471388,20.3772514 L21.1515139,20.3772514 L33.614767,20.3772514 L33.9878251,20.3772514 L49.222386,9.30869495 C50.8847843,8.10089191 53.213411,8.47057505 54.4226915,10.1350069 C55.6295114,11.7960519 55.264347,14.1280634 53.6015781,15.3361358 L38.2256921,26.5073708 L38.2309008,52.408226 L38.1406907,52.408226 L38.1406907,75.0315668 C38.1406907,77.776138 36.1421908,80 33.1968708,80 C30.2511652,80 28.2526652,77.7308084 28.2526652,75.0315668 L28.2526652,52.408226 L26.4484639,52.408226 L26.4484639,75.0315668 C26.4484639,77.776138 24.449964,80 21.5042584,80 C18.5585528,80 16.5600529,77.7308084 16.5600529,75.0315668 L16.5600529,52.408226 L16.5379486,26.2375888 L1.53338573,15.3361358 C-0.129383205,14.1280634 -0.494547573,11.7960519 0.712272291,10.1350069 C1.9215528,8.47057505 4.25017956,8.10089191 5.91257783,9.30869495 L21.1471388,20.3772514 Z M36.6920651,9.21887002 C36.6920651,14.3105377 32.5923313,18.43774 27.5354954,18.43774 C22.4786595,18.43774 18.3789257,14.3105377 18.3789257,9.21887002 C18.3789257,4.12720237 22.4786595,0 27.5354954,0 C32.5923313,0 36.6920651,4.12720237 36.6920651,9.21887002 Z M29.4770109,7.0137943 C29.877685,6.5702867 29.8455392,5.88286918 29.4046829,5.47904992 C28.9642093,5.07523066 28.2818771,5.10759785 27.8808203,5.55110546 C27.4797635,5.99499838 27.5115266,6.68203058 27.9523829,7.08584984 C28.3928565,7.49005442 29.0759541,7.4573019 29.4770109,7.0137943 Z M24.0797303,7.0137943 C24.4804044,6.5702867 24.4482586,5.88286918 24.0074023,5.47904992 C23.5669287,5.07523066 22.8845965,5.10759785 22.4835397,5.55110546 C22.082483,5.99499838 22.114246,6.68203058 22.5551023,7.08584984 C22.9955759,7.49005442 23.6786736,7.4573019 24.0797303,7.0137943 Z M28.3646569,10.6454133 C28.3646569,11.8454197 27.204869,12.8182171 25.7741981,12.8182171 C24.3435272,12.8182171 23.1837392,11.8454197 23.1837392,10.6454133 L28.3646569,10.6454133 Z" id="Combined-Shape" fill="#7BDAC9" transform="translate(27.567482, 40.000000) scale(-1, 1) translate(-27.567482, -40.000000) "></path>
                <g id="Group-7" transform="translate(20.000000, 28.000000)" font-size="12" font-family="LucidaGrande-Bold, Lucida Grande" fill="#FFFFFF" font-weight="bold">
                    <text id="FR">
                        <tspan x="0" y="12">FR</tspan>
                    </text>
                </g>
            </g>
        </g>
    </g>
</svg>