<?xml version="1.0" encoding="UTF-8" standalone="no"?>
<svg width="1280px" height="700px" viewBox="0 0 1280 700" version="1.1" xmlns="http://www.w3.org/2000/svg" xmlns:xlink="http://www.w3.org/1999/xlink">
    <!-- Generator: Sketch 39.1 (31720) - http://www.bohemiancoding.com/sketch -->
    <title>intro</title>
    <desc>Created with Sketch.</desc>
    <defs></defs>
    <g id="speaker_visuals" stroke="none" stroke-width="1" fill="none" fill-rule="evenodd">
        <g id="intro">
            <path d="M1109.8477,340.0313 C1109.927,339.3648 1109.9731,338.6883 1109.9731,338 C1109.9731,337.0236 1109.8856,336.0681 1109.7275,335.1366 L1111.813,333.479 C1111.2593,331.1655 1110.2944,329.0169 1108.9927,327.1084 L1106.3231,327.4917 C1105.3159,326.217 1104.1306,325.09 1102.8036,324.1493 L1103.1079,321.4989 C1101.1581,320.3021 1098.9806,319.4453 1096.6553,319 L1095.0322,321.1523 C1094.3656,321.0726 1093.688,321.027 1093,321.027 C1092.0232,321.027 1091.0681,321.1138 1090.1366,321.2722 L1088.4801,319.1856 C1086.1838,319.7359 1084.0463,320.6918 1082.1485,321.9785 L1082.5233,324.6518 C1081.2349,325.6649 1080.0971,326.859 1079.1486,328.1976 L1076.4983,327.8941 C1075.3025,329.8423 1074.4438,332.019 1074,334.3451 L1076.1523,335.9697 C1076.0729,336.6354 1076.0269,337.3124 1076.0269,338 C1076.0269,338.9611 1076.1107,339.9026 1076.2644,340.8195 L1074.1744,342.469 C1074.7222,344.7846 1075.681,346.9404 1076.9776,348.8518 L1079.6517,348.4774 C1080.664,349.7651 1081.8575,350.9021 1083.1956,351.851 L1082.8921,354.5014 C1084.841,355.6982 1087.0187,356.5546 1089.3446,356.9999 L1090.9692,354.8479 C1091.6357,354.9273 1092.3118,354.9733 1092.9999,354.9733 C1093.9759,354.9733 1094.9317,354.8861 1095.8632,354.7277 L1097.5191,356.8143 C1099.8155,356.264 1101.9537,355.3087 1103.85,354.0222 L1103.476,351.3485 C1104.7637,350.3369 1105.9007,349.143 1106.8492,347.8056 L1109.5002,348.1095 C1110.6975,346.1575 1111.5547,343.9808 1112,341.6551 L1109.8477,340.0313 L1109.8477,340.0313 Z M1099.5186,341.9938 L1098.467,341.8735 C1098.0929,342.4002 1097.6453,342.8703 1097.1377,343.2692 L1097.2861,344.3298 C1096.5373,344.8382 1095.6918,345.2155 1094.7849,345.433 L1094.1265,344.6036 C1093.7599,344.6656 1093.3844,344.7057 1092.9999,344.7057 C1092.7282,344.7057 1092.4626,344.6845 1092.1999,344.6534 L1091.5556,345.5065 C1090.6368,345.3306 1089.7765,344.9922 1089.0062,344.5191 L1089.1265,343.4681 C1088.5995,343.0941 1088.1297,342.6461 1087.7304,342.1388 L1086.6699,342.2872 C1086.1578,341.5317 1085.7793,340.6808 1085.5625,339.7653 L1086.3937,339.1095 C1086.3335,338.7477 1086.2943,338.3788 1086.2943,337.9999 C1086.2943,337.729 1086.315,337.4629 1086.3463,337.2002 L1085.4936,336.556 C1085.6695,335.6375 1086.0086,334.777 1086.4807,334.0078 L1087.5315,334.128 C1087.9057,333.6003 1088.354,333.1301 1088.8616,332.7304 L1088.7132,331.6705 C1089.4628,331.1625 1090.3074,330.7848 1091.2144,330.5673 L1091.8728,331.3963 C1092.2402,331.3343 1092.615,331.2946 1093.0001,331.2946 C1093.271,331.2946 1093.5382,331.3146 1093.8009,331.3466 L1094.4437,330.4938 C1095.3632,330.6701 1096.2227,331.0085 1096.9931,331.4813 L1096.8729,332.5323 C1097.3953,332.9034 1097.8623,333.3465 1098.2593,333.8493 L1099.3183,333.6972 C1099.832,334.4509 1100.2142,335.3003 1100.4324,336.214 L1099.6033,336.873 C1099.6658,337.2408 1099.7051,337.6152 1099.7051,338.0001 C1099.7051,338.2718 1099.6844,338.5378 1099.6531,338.8002 L1100.5059,339.4444 C1100.3299,340.3628 1099.9914,341.2233 1099.5186,341.9938 L1099.5186,341.9938 Z" id="Shape" fill="#5192C3"></path>
            <path d="M723.8477,340.0313 C723.927,339.3648 723.9731,338.6883 723.9731,338 C723.9731,337.0236 723.8856,336.0681 723.7275,335.1366 L725.813,333.479 C725.2593,331.1655 724.2944,329.0169 722.9927,327.1084 L720.3231,327.4917 C719.3159,326.217 718.1306,325.09 716.8036,324.1493 L717.1079,321.4989 C715.1581,320.3021 712.9806,319.4453 710.6553,319 L709.0322,321.1523 C708.3656,321.0726 707.688,321.027 707,321.027 C706.0232,321.027 705.0681,321.1138 704.1366,321.2722 L702.4801,319.1856 C700.1838,319.7359 698.0463,320.6918 696.1485,321.9785 L696.5233,324.6518 C695.2349,325.6649 694.0971,326.859 693.1486,328.1976 L690.4983,327.8941 C689.3025,329.8423 688.4438,332.019 688,334.3451 L690.1523,335.9697 C690.0729,336.6354 690.0269,337.3124 690.0269,338 C690.0269,338.9611 690.1107,339.9026 690.2644,340.8195 L688.1744,342.469 C688.7222,344.7846 689.681,346.9404 690.9776,348.8518 L693.6517,348.4774 C694.664,349.7651 695.8575,350.9021 697.1956,351.851 L696.8921,354.5014 C698.841,355.6982 701.0187,356.5546 703.3446,356.9999 L704.9692,354.8479 C705.6357,354.9273 706.3118,354.9733 706.9999,354.9733 C707.9759,354.9733 708.9317,354.8861 709.8632,354.7277 L711.5191,356.8143 C713.8155,356.264 715.9537,355.3087 717.85,354.0222 L717.476,351.3485 C718.7637,350.3369 719.9007,349.143 720.8492,347.8056 L723.5002,348.1095 C724.6975,346.1575 725.5547,343.9808 726,341.6551 L723.8477,340.0313 L723.8477,340.0313 Z M713.5186,341.9938 L712.467,341.8735 C712.0929,342.4002 711.6453,342.8703 711.1377,343.2692 L711.2861,344.3298 C710.5373,344.8382 709.6918,345.2155 708.7849,345.433 L708.1265,344.6036 C707.7599,344.6656 707.3844,344.7057 706.9999,344.7057 C706.7282,344.7057 706.4626,344.6845 706.1999,344.6534 L705.5556,345.5065 C704.6368,345.3306 703.7765,344.9922 703.0062,344.5191 L703.1265,343.4681 C702.5995,343.0941 702.1297,342.6461 701.7304,342.1388 L700.6699,342.2872 C700.1578,341.5317 699.7793,340.6808 699.5625,339.7653 L700.3937,339.1095 C700.3335,338.7477 700.2943,338.3788 700.2943,337.9999 C700.2943,337.729 700.315,337.4629 700.3463,337.2002 L699.4936,336.556 C699.6695,335.6375 700.0086,334.777 700.4807,334.0078 L701.5315,334.128 C701.9057,333.6003 702.354,333.1301 702.8616,332.7304 L702.7132,331.6705 C703.4628,331.1625 704.3074,330.7848 705.2144,330.5673 L705.8728,331.3963 C706.2402,331.3343 706.615,331.2946 707.0001,331.2946 C707.271,331.2946 707.5382,331.3146 707.8009,331.3466 L708.4437,330.4938 C709.3632,330.6701 710.2227,331.0085 710.9931,331.4813 L710.8729,332.5323 C711.3953,332.9034 711.8623,333.3465 712.2593,333.8493 L713.3183,333.6972 C713.832,334.4509 714.2142,335.3003 714.4324,336.214 L713.6033,336.873 C713.6658,337.2408 713.7051,337.6152 713.7051,338.0001 C713.7051,338.2718 713.6844,338.5378 713.6531,338.8002 L714.5059,339.4444 C714.3299,340.3628 713.9914,341.2233 713.5186,341.9938 L713.5186,341.9938 Z" id="Shape" fill="#5192C3"></path>
            <path d="M337.8477,340.0313 C337.927,339.3648 337.9731,338.6883 337.9731,338 C337.9731,337.0236 337.8856,336.0681 337.7275,335.1366 L339.813,333.479 C339.2593,331.1655 338.2944,329.0169 336.9927,327.1084 L334.3231,327.4917 C333.3159,326.217 332.1306,325.09 330.8036,324.1493 L331.1079,321.4989 C329.1581,320.3021 326.9806,319.4453 324.6553,319 L323.0322,321.1523 C322.3656,321.0726 321.688,321.027 321,321.027 C320.0232,321.027 319.0681,321.1138 318.1366,321.2722 L316.4801,319.1856 C314.1838,319.7359 312.0463,320.6918 310.1485,321.9785 L310.5233,324.6518 C309.2349,325.6649 308.0971,326.859 307.1486,328.1976 L304.4983,327.8941 C303.3025,329.8423 302.4438,332.019 302,334.3451 L304.1523,335.9697 C304.0729,336.6354 304.0269,337.3124 304.0269,338 C304.0269,338.9611 304.1107,339.9026 304.2644,340.8195 L302.1744,342.469 C302.7222,344.7846 303.681,346.9404 304.9776,348.8518 L307.6517,348.4774 C308.664,349.7651 309.8575,350.9021 311.1956,351.851 L310.8921,354.5014 C312.841,355.6982 315.0187,356.5546 317.3446,356.9999 L318.9692,354.8479 C319.6357,354.9273 320.3118,354.9733 320.9999,354.9733 C321.9759,354.9733 322.9317,354.8861 323.8632,354.7277 L325.5191,356.8143 C327.8155,356.264 329.9537,355.3087 331.85,354.0222 L331.476,351.3485 C332.7637,350.3369 333.9007,349.143 334.8492,347.8056 L337.5002,348.1095 C338.6975,346.1575 339.5547,343.9808 340,341.6551 L337.8477,340.0313 L337.8477,340.0313 Z M327.5186,341.9938 L326.467,341.8735 C326.0929,342.4002 325.6453,342.8703 325.1377,343.2692 L325.2861,344.3298 C324.5373,344.8382 323.6918,345.2155 322.7849,345.433 L322.1265,344.6036 C321.7599,344.6656 321.3844,344.7057 320.9999,344.7057 C320.7282,344.7057 320.4626,344.6845 320.1999,344.6534 L319.5556,345.5065 C318.6368,345.3306 317.7765,344.9922 317.0062,344.5191 L317.1265,343.4681 C316.5995,343.0941 316.1297,342.6461 315.7304,342.1388 L314.6699,342.2872 C314.1578,341.5317 313.7793,340.6808 313.5625,339.7653 L314.3937,339.1095 C314.3335,338.7477 314.2943,338.3788 314.2943,337.9999 C314.2943,337.729 314.315,337.4629 314.3463,337.2002 L313.4936,336.556 C313.6695,335.6375 314.0086,334.777 314.4807,334.0078 L315.5315,334.128 C315.9057,333.6003 316.354,333.1301 316.8616,332.7304 L316.7132,331.6705 C317.4628,331.1625 318.3074,330.7848 319.2144,330.5673 L319.8728,331.3963 C320.2402,331.3343 320.615,331.2946 321.0001,331.2946 C321.271,331.2946 321.5382,331.3146 321.8009,331.3466 L322.4437,330.4938 C323.3632,330.6701 324.2227,331.0085 324.9931,331.4813 L324.8729,332.5323 C325.3953,332.9034 325.8623,333.3465 326.2593,333.8493 L327.3183,333.6972 C327.832,334.4509 328.2142,335.3003 328.4324,336.214 L327.6033,336.873 C327.6658,337.2408 327.7051,337.6152 327.7051,338.0001 C327.7051,338.2718 327.6844,338.5378 327.6531,338.8002 L328.5059,339.4444 C328.3299,340.3628 327.9914,341.2233 327.5186,341.9938 L327.5186,341.9938 Z" id="Shape" fill="#5192C3"></path>
            <circle id="Oval-2" fill="#657388" cx="241" cy="290" r="7"></circle>
            <circle id="Oval-2" fill="#657388" cx="241" cy="385" r="7"></circle>
            <polygon id="Triangle-2" fill="#657388" points="1181 394.321429 1181 376 1190.5 385.160714"></polygon>
            <polygon id="Triangle-2" fill="#657388" points="1181 299.321429 1181 281 1190.5 290.160714"></polygon>
            <text id="tech" font-family="LucidaGrande, Lucida Grande" font-size="28" font-weight="normal" fill="#454646">
                <tspan x="136" y="298">tech</tspan>
            </text>
            <text id="content" font-family="LucidaGrande, Lucida Grande" font-size="28" font-weight="normal" fill="#454646">
                <tspan x="89" y="393">content</tspan>
            </text>
            <polygon id="Path-2" stroke="#9AD7E7" stroke-width="2" points="301 385 340 424 428 424 468 385"></polygon>
            <polygon id="Path-2" stroke="#9AD7E7" stroke-width="2" points="431 385 469.512931 425 558.512931 425 598.512931 385"></polygon>
            <polygon id="Path-3" stroke="#FFE4B8" stroke-width="2" points="346 385 431.221216 471 1024.7969 471 1112 385"></polygon>
            <polygon id="Path-5" stroke="#9AD7E7" stroke-width="2" points="767 385 801.548855 418 953.548855 418 986.502631 385"></polygon>
            <polygon id="Path-5" stroke="#FFE4B8" stroke-width="2" points="559 385 614.049488 439 856.243396 439 908.751316 385"></polygon>
            <path d="M248.5,385 L1180.5,385" id="Line" stroke="#657388" stroke-width="2" stroke-linecap="square"></path>
            <polygon id="Path-6" stroke="#7BDAC9" stroke-width="2" points="301 290 349 244 530 244 576 290"></polygon>
            <polygon id="Path-7" stroke="#7BDAC9" stroke-width="2" points="512 290 557 243 763 243 808.746124 290"></polygon>
            <polygon id="Path-8" stroke="#FFB9A1" stroke-width="2" points="439 290 509 219 1041 219 1112 290"></polygon>
            <polygon id="Path-7" stroke="#7BDAC9" stroke-width="2" points="746 290 791 243 997 243 1042.74612 290"></polygon>
            <g id="Group-2" transform="translate(341.000000, 530.000000)">
                <circle id="Oval-3" fill="#9AD7E7" cx="52.5" cy="28.5" r="28.5"></circle>
                <text id="Content-author" font-family="LucidaGrande, Lucida Grande" font-size="14" font-weight="normal" fill="#454646">
                    <tspan x="0" y="80">Content author</tspan>
                </text>
            </g>
            <path d="M248.5,290 L1180.5,290" id="Line" stroke="#657388" stroke-width="2" stroke-linecap="square"></path>
            <g id="Group-2" transform="translate(1023.000000, 530.000000)">
                <circle id="Oval-3" fill="#FFE4B8" cx="39.5" cy="28.5" r="28.5"></circle>
                <text id="Copy-editor" font-family="LucidaGrande, Lucida Grande" font-size="14" font-weight="normal" fill="#454646">
                    <tspan x="0" y="80">Copy editor</tspan>
                </text>
            </g>
            <g id="Group-2" transform="translate(1033.000000, 87.000000)">
                <circle id="Oval-3" fill="#7BDAC9" cx="30.5" cy="28.5" r="28.5"></circle>
                <text id="Designer" font-family="LucidaGrande, Lucida Grande" font-size="14" font-weight="normal" fill="#454646">
                    <tspan x="0" y="80">Designer</tspan>
                </text>
            </g>
            <g id="Group-2" transform="translate(359.000000, 87.000000)">
                <ellipse id="Oval-3" fill="#FFB095" cx="34.5" cy="28.5" rx="28.5" ry="28.5"></ellipse>
                <text id="Developer" font-family="LucidaGrande, Lucida Grande" font-size="14" font-weight="normal" fill="#454646">
                    <tspan x="0" y="80">Developer</tspan>
                </text>
            </g>
            <circle id="Oval-3" fill="#9AD7E7" cx="468" cy="385" r="4"></circle>
            <circle id="Oval-3" fill="#7BDAC9" cx="576" cy="290" r="4"></circle>
            <circle id="Oval-3" fill="#7BDAC9" cx="808" cy="290" r="4"></circle>
            <circle id="Oval-3" fill="#7BDAC9" cx="1042" cy="290" r="4"></circle>
            <circle id="Oval-3" fill="#FFB9A1" cx="1112" cy="290" r="4"></circle>
            <circle id="Oval-3" fill="#9AD7E7" cx="599" cy="385" r="4"></circle>
            <circle id="Oval-3" fill="#FFE4B8" cx="908" cy="385" r="4"></circle>
            <circle id="Oval-3" fill="#9AD7E7" cx="986" cy="385" r="4"></circle>
            <circle id="Oval-3" fill="#FFE4B8" cx="1112" cy="385" r="4"></circle>
        </g>
    </g>
</svg>